<?xml version="1.0" ?><!DOCTYPE svg  PUBLIC '-//W3C//DTD SVG 1.1//EN'  'http://www.w3.org/Graphics/SVG/1.1/DTD/svg11.dtd'><svg enable-background="new 0 0 24 24" height="24px" id="Layer_1" version="1.1" viewBox="0 0 24 24" width="24px" xml:space="preserve" xmlns="http://www.w3.org/2000/svg" xmlns:xlink="http://www.w3.org/1999/xlink"><g><path d="M8,4v11c-0.8-0.6-1.9-1-3-1c-2.8,0-5,2.2-5,5s2.2,5,5,5s5-2.2,5-5V9.5l12-3V13c-0.8-0.6-1.9-1-3-1c-2.8,0-5,2.2-5,5   s2.2,5,5,5s5-2.2,5-5V0L8,4z M5,22c-1.7,0-3-1.3-3-3s1.3-3,3-3s3,1.3,3,3S6.7,22,5,22z M19,20c-1.7,0-3-1.3-3-3s1.3-3,3-3   s3,1.3,3,3S20.7,20,19,20z M22,5.5l-12,3V4.5l12-3V5.5z"/><path d="M5,17v1c0.6,0,1,0.4,1,1h1C7,17.9,6.1,17,5,17z"/><path d="M19,15v1c0.6,0,1,0.4,1,1h1C21,15.9,20.1,15,19,15z"/></g></svg>